<?xml version="1.0" encoding="UTF-8"?>
<svg width="156px" height="132px" viewBox="0 0 156 132" version="1.1" xmlns="http://www.w3.org/2000/svg" xmlns:xlink="http://www.w3.org/1999/xlink">
    <title>Group</title>
    <g id="Page-1" stroke="none" stroke-width="1" fill="none" fill-rule="evenodd">
        <g id="Group">
            <path d="M154.82354,72.6115631 C154.74816,72.1443957 154.631662,71.6943407 154.501459,71.2511306 C154.434644,71.0252475 154.372969,70.7993644 154.292449,70.578615 C154.124555,70.121715 153.920684,69.6921949 153.696255,69.2643859 C153.59175,69.0658826 153.492385,68.8673792 153.374174,68.6757208 C153.130899,68.2718692 152.856788,67.8971086 152.562117,67.5309041 C152.411356,67.3392457 152.264021,67.1492985 152.099553,66.9696188 C151.794604,66.6325053 151.463956,66.3313278 151.119603,66.0387065 C150.922585,65.8658717 150.728994,65.6964594 150.516557,65.5407369 C150.153359,65.2703617 149.766176,65.0359224 149.368714,64.8100392 C149.142571,64.685119 148.923282,64.5533539 148.685147,64.4421236 C148.255134,64.2384865 147.807989,64.0793416 147.350565,63.9321753 C147.177532,63.8757045 147.025057,63.7867203 146.850311,63.7422281 L114.760373,55.0628404 C110.57674,27.3408211 86.6382055,6 57.736532,6 C25.9018613,6 0,31.8721734 0,63.6737787 L0,74.3570235 L0,120.998465 C0,127.073352 4.93058779,132 11.0124456,132 L31.4217897,132 C52.0058801,132 68.7489776,115.27267 68.7489776,94.7138841 L68.7489776,74.3570235 C68.7489776,68.2821366 63.8183898,63.3572001 57.736532,63.3572001 C51.6546743,63.3572001 46.7257997,68.2821366 46.7257997,74.3570235 L46.7257997,94.7138841 C46.7257997,103.140009 39.8610098,109.998642 31.4217897,109.998642 L22.0248911,109.998642 L22.0248911,74.3570235 L22.0248911,63.6737787 C22.0248911,44.0031237 38.0467317,27.9996469 57.736532,27.9996469 C77.4297588,27.9996469 93.4533126,44.0031237 93.4533126,63.6737787 L93.4533126,74.3570235 C93.4533126,80.4353329 98.3839003,85.356847 104.465758,85.356847 C109.30726,85.356847 113.372682,82.2150181 114.847746,77.8787467 L132.973396,82.7814372 L132.973396,93.8154853 C132.973396,102.73958 125.688872,109.998642 116.733979,109.998642 L84.5857926,109.998642 C78.5039348,109.998642 73.5716338,114.923578 73.5716338,120.998465 C73.5716338,127.073352 78.5039348,132 84.5857926,132 L116.733979,132 C137.832029,132 155,114.87053 155,93.8154853 L155,74.3518898 C155,74.0387337 154.933185,73.7426899 154.907487,73.4363787 C154.883502,73.1591585 154.868084,72.8836495 154.82354,72.6115631 Z" id="Fill-12" fill="#5324FF"></path>
            <path d="M136,32 L118.479738,14.4622716 C115.173421,11.154673 115.173421,5.78999206 118.479738,2.48069897 C121.784361,-0.826899656 127.147603,-0.826899656 130.450534,2.48069897 L136,8.03516018 L141.549466,2.48069897 C144.852397,-0.826899656 150.215639,-0.826899656 153.520262,2.48069897 C156.826579,5.78999206 156.826579,11.154673 153.520262,14.4622716 L136,32 Z" id="Fill-14" fill="#FF8D8D"></path>
        </g>
    </g>
</svg>